<svg width="60" height="60" viewBox="0 0 60 60" fill="none" xmlns="http://www.w3.org/2000/svg">
<circle cx="30" cy="30" r="30" fill="#7E99A5"/>
<path d="M36.3984 30.9785C36.3984 32.5918 36.2799 34.0365 36.043 35.3125C35.8151 36.5885 35.4414 37.6686 34.9219 38.5527C34.4115 39.4368 33.7507 40.1113 32.9395 40.5762C32.1283 41.041 31.1439 41.2734 29.9863 41.2734C28.9108 41.2734 27.972 41.041 27.1699 40.5762C26.377 40.1113 25.7161 39.4368 25.1875 38.5527C24.668 37.6686 24.276 36.5885 24.0117 35.3125C23.7565 34.0365 23.6289 32.5918 23.6289 30.9785C23.6289 29.3652 23.7428 27.9206 23.9707 26.6445C24.2077 25.3685 24.5768 24.293 25.0781 23.418C25.5885 22.5339 26.2448 21.8594 27.0469 21.3945C27.8581 20.9297 28.8379 20.6973 29.9863 20.6973C31.071 20.6973 32.0143 20.9297 32.8164 21.3945C33.6185 21.8503 34.2839 22.5202 34.8125 23.4043C35.3411 24.2793 35.7376 25.3548 36.002 26.6309C36.2663 27.9069 36.3984 29.3561 36.3984 30.9785ZM26.1582 30.9785C26.1582 32.3457 26.2266 33.5397 26.3633 34.5605C26.5 35.5814 26.7188 36.4336 27.0195 37.1172C27.3203 37.7917 27.7122 38.3021 28.1953 38.6484C28.6875 38.9857 29.2845 39.1543 29.9863 39.1543C30.6882 39.1543 31.2852 38.9857 31.7773 38.6484C32.2695 38.3112 32.6706 37.8053 32.9805 37.1309C33.2995 36.4564 33.5273 35.6087 33.6641 34.5879C33.8099 33.5579 33.8828 32.3548 33.8828 30.9785C33.8828 29.6113 33.8099 28.4173 33.6641 27.3965C33.5273 26.3757 33.2995 25.528 32.9805 24.8535C32.6706 24.179 32.2695 23.6732 31.7773 23.3359C31.2852 22.9987 30.6882 22.8301 29.9863 22.8301C29.2845 22.8301 28.6875 22.9987 28.1953 23.3359C27.7122 23.6732 27.3203 24.179 27.0195 24.8535C26.7188 25.528 26.5 26.3757 26.3633 27.3965C26.2266 28.4173 26.1582 29.6113 26.1582 30.9785Z" fill="#3A3A3A"/>
</svg>
