<svg width="60" height="60" viewBox="0 0 60 60" fill="none" xmlns="http://www.w3.org/2000/svg">
<circle cx="30" cy="30" r="30" fill="#7E99A5"/>
<path d="M32.0098 41H29.6035V28.5176C29.6035 28.1257 29.6035 27.7064 29.6035 27.2598C29.6126 26.8132 29.6217 26.3711 29.6309 25.9336C29.6491 25.487 29.6628 25.0632 29.6719 24.6621C29.6901 24.252 29.7038 23.8919 29.7129 23.582C29.5579 23.7461 29.4212 23.8874 29.3027 24.0059C29.1842 24.1243 29.0612 24.2383 28.9336 24.3477C28.8151 24.457 28.6875 24.5755 28.5508 24.7031C28.4141 24.8216 28.25 24.9629 28.0586 25.127L26.0352 26.7812L24.7227 25.0996L29.959 21.0117H32.0098V41Z" fill="#3A3A3A"/>
</svg>
