<svg width="60" height="60" viewBox="0 0 60 60" fill="none" xmlns="http://www.w3.org/2000/svg">
<circle cx="30" cy="30" r="30" fill="#7E99A5"/>
<path d="M36.0703 41H23.6016V38.8672L28.3867 33.6582C29.0703 32.9199 29.681 32.2454 30.2188 31.6348C30.7565 31.0241 31.2122 30.4271 31.5859 29.8438C31.9688 29.2604 32.2604 28.6771 32.4609 28.0938C32.6615 27.5013 32.7617 26.8587 32.7617 26.166C32.7617 25.6283 32.6842 25.1543 32.5293 24.7441C32.3743 24.334 32.151 23.9876 31.8594 23.7051C31.5768 23.4134 31.2396 23.1947 30.8477 23.0488C30.4557 22.903 30.0182 22.8301 29.5352 22.8301C28.6693 22.8301 27.8854 23.0078 27.1836 23.3633C26.4909 23.7096 25.8301 24.1562 25.2012 24.7031L23.8066 23.0762C24.1712 22.748 24.5632 22.4427 24.9824 22.1602C25.4017 21.8685 25.8529 21.6178 26.3359 21.4082C26.819 21.1986 27.3294 21.0345 27.8672 20.916C28.4049 20.7884 28.9701 20.7246 29.5625 20.7246C30.4375 20.7246 31.2259 20.8477 31.9277 21.0938C32.6387 21.3398 33.2402 21.6953 33.7324 22.1602C34.2246 22.6159 34.6029 23.1764 34.8672 23.8418C35.1406 24.498 35.2773 25.2409 35.2773 26.0703C35.2773 26.8451 35.1543 27.5833 34.9082 28.2852C34.6712 28.987 34.3385 29.6797 33.9102 30.3633C33.4909 31.0378 32.985 31.7168 32.3926 32.4004C31.8092 33.084 31.1758 33.7949 30.4922 34.5332L26.6504 38.6211V38.7305H36.0703V41Z" fill="#3A3A3A"/>
</svg>
