<svg width="60" height="60" viewBox="0 0 60 60" fill="none" xmlns="http://www.w3.org/2000/svg">
<circle cx="30" cy="30" r="30" fill="#7E99A5"/>
<path d="M35.4277 25.6875C35.4277 26.3529 35.3229 26.959 35.1133 27.5059C34.9036 28.0527 34.6074 28.5267 34.2246 28.9277C33.8509 29.3288 33.3997 29.6615 32.8711 29.9258C32.3424 30.181 31.7546 30.3633 31.1074 30.4727V30.5547C32.7207 30.7552 33.9466 31.2702 34.7852 32.0996C35.6237 32.9199 36.043 33.9909 36.043 35.3125C36.043 36.1875 35.8926 36.9896 35.5918 37.7188C35.3001 38.4479 34.8535 39.0768 34.252 39.6055C33.6504 40.1341 32.8893 40.5443 31.9688 40.8359C31.0482 41.1276 29.959 41.2734 28.7012 41.2734C27.7077 41.2734 26.7689 41.196 25.8848 41.041C25.0098 40.8861 24.1849 40.6035 23.4102 40.1934V37.8691C24.2031 38.2884 25.0599 38.612 25.9805 38.8398C26.9102 39.0677 27.7988 39.1816 28.6465 39.1816C29.485 39.1816 30.2096 39.0905 30.8203 38.9082C31.431 38.7259 31.9323 38.4661 32.3242 38.1289C32.7253 37.7917 33.0169 37.377 33.1992 36.8848C33.3906 36.3926 33.4863 35.8411 33.4863 35.2305C33.4863 34.6107 33.3633 34.082 33.1172 33.6445C32.8802 33.1979 32.5384 32.8333 32.0918 32.5508C31.6452 32.2591 31.0983 32.0449 30.4512 31.9082C29.8132 31.7715 29.0885 31.7031 28.2773 31.7031H26.459V29.6387H28.2773C29.0156 29.6387 29.6719 29.5475 30.2461 29.3652C30.8203 29.1829 31.2988 28.9232 31.6816 28.5859C32.0736 28.2487 32.3698 27.8477 32.5703 27.3828C32.7708 26.918 32.8711 26.4076 32.8711 25.8516C32.8711 25.3776 32.7891 24.9538 32.625 24.5801C32.4609 24.2064 32.2285 23.8919 31.9277 23.6367C31.627 23.3724 31.2669 23.1719 30.8477 23.0352C30.4284 22.8984 29.9635 22.8301 29.4531 22.8301C28.4779 22.8301 27.6165 22.985 26.8691 23.2949C26.1309 23.5957 25.4245 23.9922 24.75 24.4844L23.4922 22.7754C23.8385 22.4928 24.2214 22.2285 24.6406 21.9824C25.069 21.7363 25.5339 21.5221 26.0352 21.3398C26.5365 21.1484 27.0697 20.998 27.6348 20.8887C28.209 20.7793 28.8151 20.7246 29.4531 20.7246C30.4375 20.7246 31.2988 20.8477 32.0371 21.0938C32.7845 21.3398 33.4089 21.6862 33.9102 22.1328C34.4115 22.5703 34.7897 23.0944 35.0449 23.7051C35.3001 24.3066 35.4277 24.9674 35.4277 25.6875Z" fill="#3A3A3A"/>
</svg>
