<svg width="60" height="60" viewBox="0 0 60 60" fill="none" xmlns="http://www.w3.org/2000/svg">
<circle cx="30" cy="30" r="30" fill="#7E99A5"/>
<path d="M37.1504 36.5156H34.2383V41H31.832V36.5156H22.6035V34.3418L31.668 20.9023H34.2383V34.2461H37.1504V36.5156ZM31.832 34.2461V29.3789C31.832 28.8685 31.8366 28.3353 31.8457 27.7793C31.8639 27.2142 31.8822 26.6673 31.9004 26.1387C31.9186 25.6009 31.9368 25.0996 31.9551 24.6348C31.9824 24.1699 32.0007 23.7826 32.0098 23.4727H31.8867C31.8229 23.6549 31.7409 23.86 31.6406 24.0879C31.5495 24.3066 31.4447 24.5299 31.3262 24.7578C31.2168 24.9766 31.1029 25.1908 30.9844 25.4004C30.8659 25.61 30.7565 25.7878 30.6562 25.9336L25.0371 34.2461H31.832Z" fill="#3A3A3A"/>
</svg>
