<svg width="60" height="60" viewBox="0 0 60 60" fill="none" xmlns="http://www.w3.org/2000/svg">
<circle cx="30" cy="30" r="30" fill="#7E99A5"/>
<path d="M29.7402 28.7363C30.6426 28.7363 31.4811 28.8639 32.2559 29.1191C33.0397 29.3652 33.7188 29.7344 34.293 30.2266C34.8763 30.7188 35.332 31.3294 35.6602 32.0586C35.9883 32.7878 36.1523 33.6309 36.1523 34.5879C36.1523 35.627 35.9974 36.5612 35.6875 37.3906C35.3776 38.2201 34.9173 38.9219 34.3066 39.4961C33.696 40.0703 32.9395 40.5124 32.0371 40.8223C31.1439 41.123 30.1139 41.2734 28.9473 41.2734C28.4824 41.2734 28.0221 41.2507 27.5664 41.2051C27.1198 41.1595 26.6868 41.0911 26.2676 41C25.8574 40.918 25.4655 40.8086 25.0918 40.6719C24.7181 40.5352 24.3809 40.3757 24.0801 40.1934V37.8418C24.3809 38.0514 24.7318 38.2383 25.1328 38.4023C25.543 38.5664 25.9714 38.7031 26.418 38.8125C26.8646 38.9219 27.3112 39.0085 27.7578 39.0723C28.2135 39.127 28.6328 39.1543 29.0156 39.1543C29.7357 39.1543 30.3783 39.0723 30.9434 38.9082C31.5085 38.735 31.987 38.4707 32.3789 38.1152C32.7708 37.7598 33.0716 37.3132 33.2812 36.7754C33.4909 36.2376 33.5957 35.5996 33.5957 34.8613C33.5957 33.5579 33.1947 32.5645 32.3926 31.8809C31.5905 31.1882 30.4238 30.8418 28.8926 30.8418C28.6465 30.8418 28.3776 30.8555 28.0859 30.8828C27.8034 30.901 27.5163 30.9284 27.2246 30.9648C26.9421 31.0013 26.6686 31.0423 26.4043 31.0879C26.1491 31.1243 25.9258 31.1608 25.7344 31.1973L24.5039 30.418L25.2559 21.0117H34.6895V23.2812H27.416L26.8828 29.0098C27.1745 28.9551 27.5573 28.8958 28.0312 28.832C28.5143 28.7682 29.084 28.7363 29.7402 28.7363Z" fill="#3A3A3A"/>
</svg>
