<svg width="337" height="589" viewBox="0 0 337 589" fill="none" xmlns="http://www.w3.org/2000/svg">
<rect width="337" height="589" fill="#B9B9B9"/>
<rect x="10" y="13" width="317" height="576" fill="#838383"/>
<path d="M11 589L36 539L302.5 540.5L326.5 589H11Z" fill="#9D9BA0"/>
<rect x="35" y="61" width="268" height="480" fill="#B8B6B7" stroke="#7C7A7B" stroke-width="2"/>
<path d="M302 301H36V253C36 253 115.844 282.5 169 282.5C222.156 282.5 302 253 302 253V301Z" fill="#BDBBBC"/>
<rect x="36" y="301" width="266" height="126" fill="#A59FA1"/>
<rect x="123" y="61" width="92" height="480" stroke="#7C7A7B" stroke-width="2"/>
<g filter="url(#filter0_d)">
<rect x="50" y="322" width="237" height="17" fill="#BCB6B8"/>
</g>
<g filter="url(#filter1_f)">
<line x1="54" y1="325.5" x2="284" y2="325.5" stroke="white"/>
</g>
<defs>
<filter id="filter0_d" x="45" y="321" width="247" height="27" filterUnits="userSpaceOnUse" color-interpolation-filters="sRGB">
<feFlood flood-opacity="0" result="BackgroundImageFix"/>
<feColorMatrix in="SourceAlpha" type="matrix" values="0 0 0 0 0 0 0 0 0 0 0 0 0 0 0 0 0 0 127 0"/>
<feOffset dy="4"/>
<feGaussianBlur stdDeviation="2.5"/>
<feColorMatrix type="matrix" values="0 0 0 0 0 0 0 0 0 0 0 0 0 0 0 0 0 0 0.25 0"/>
<feBlend mode="normal" in2="BackgroundImageFix" result="effect1_dropShadow"/>
<feBlend mode="normal" in="SourceGraphic" in2="effect1_dropShadow" result="shape"/>
</filter>
<filter id="filter1_f" x="49" y="320" width="240" height="11" filterUnits="userSpaceOnUse" color-interpolation-filters="sRGB">
<feFlood flood-opacity="0" result="BackgroundImageFix"/>
<feBlend mode="normal" in="SourceGraphic" in2="BackgroundImageFix" result="shape"/>
<feGaussianBlur stdDeviation="2.5" result="effect1_foregroundBlur"/>
</filter>
</defs>
</svg>
